<svg width="422" height="106" viewBox="0 0 422 106" fill="none" xmlns="http://www.w3.org/2000/svg">
<path d="M1.42188 68.8906C3.79688 68.8906 5.39062 68.5781 6.20312 67.9531C7.45312 66.9844 8.54688 65.375 9.48438 63.125H9.4375L32.875 2.28125C34.625 2.28125 36.3125 2.01562 37.9375 1.48438C39.5625 0.953125 40.5781 0.546875 40.9844 0.265625L62.6406 58.2969C64.3281 63.2031 66.1875 66.4688 68.2188 68.0938C68.8438 68.5938 69.4219 68.8438 69.9531 68.8438C71.5156 68.8438 72.7656 68.5469 73.7031 67.9531L72.6719 74H44.7812L45.4844 68.8438C50.7656 68.9375 53.625 67.9375 54.0625 65.8438C54.2188 65.2188 54.2188 64.5312 54.0625 63.7812L48.0625 47.8906H23.0312L17.0312 65.0469C16.4375 66.4844 16.7812 67.625 18.0625 68.4688C18.4062 68.7188 19.0469 68.8438 19.9844 68.8438C20.9531 68.8438 21.7812 68.8125 22.4688 68.75C24.1562 68.6562 25.4062 68.4531 26.2188 68.1406L25.4688 74H0.8125L1.42188 68.8906ZM45.9062 42.125L35.125 13.4844L25.0469 42.125H45.9062ZM74.7303 74V72.944H78.9543V24.8H74.7303V23.744H84.7143V30.848C85.0663 29.76 85.5783 28.656 86.2503 27.536C86.9223 26.384 87.7863 25.424 88.8423 24.656C89.8983 23.856 91.1623 23.456 92.6343 23.456C94.0103 23.456 95.3543 23.808 96.6663 24.512C98.0103 25.184 99.1143 26.544 99.9783 28.592C100.874 30.608 101.322 33.664 101.322 37.76V72.944H105.402V74H91.7223V72.944H95.5623V38.816C95.5623 34.016 95.1623 30.528 94.3623 28.352C93.5623 26.144 92.3303 25.04 90.6663 25.04C89.8983 25.04 89.1463 25.408 88.4103 26.144C87.7063 26.848 87.0823 27.744 86.5383 28.832C85.9943 29.888 85.5463 30.976 85.1943 32.096C84.8743 33.184 84.7143 34.112 84.7143 34.88V72.944H88.6503V74H74.7303ZM114.327 105.296C112.727 105.296 111.479 104.976 110.583 104.336C109.687 103.696 109.047 102.928 108.663 102.032C108.343 101.136 108.183 100.304 108.183 99.536C108.183 98 108.631 96.752 109.527 95.792C110.487 94.896 111.671 94.448 113.079 94.448C114.359 94.448 115.351 94.736 116.055 95.312C116.759 95.952 117.335 96.56 117.783 97.136C118.295 97.776 118.839 98.096 119.415 98.096C119.927 98.096 120.311 97.872 120.567 97.424C120.887 96.976 121.143 96.464 121.335 95.888L144.087 32.528H147.543L124.503 94.736C122.903 99.024 121.239 101.84 119.511 103.184C117.783 104.592 116.055 105.296 114.327 105.296ZM129.879 72.56L110.967 31.76L122.583 31.184L134.391 58.736H134.967L129.879 72.56ZM105.975 33.2V30.8H129.783V33.2H105.975ZM136.695 33.2V30.8H154.743V33.2H136.695ZM185.399 75.44L160.631 13.424C157.879 6.448 154.807 2.96 151.415 2.96H151.127V1.99999H181.559V2.96H181.175C178.295 2.96 176.375 3.856 175.415 5.648C174.455 7.376 174.583 9.776 175.799 12.848L192.791 56.144L202.871 31.184L196.535 13.424C195.319 9.96799 193.847 7.376 192.119 5.648C190.455 3.856 188.343 2.96 185.783 2.96H185.591V1.99999H216.407V2.96H216.023C213.271 2.96 211.479 3.824 210.647 5.55199C209.815 7.27999 209.911 9.712 210.935 12.848L225.623 56.144L242.039 12.944C243.127 10.064 242.999 7.72799 241.655 5.936C240.375 4.08 238.103 3.088 234.839 2.96V1.99999H252.407V2.96C250.679 2.96 249.047 3.792 247.511 5.456C246.039 7.12 244.823 9.232 243.863 11.792L219.383 75.44H218.615L203.447 33.008L186.263 75.44H185.399ZM295.696 24.272L288.304 35.984C286.96 34.512 285.456 33.232 283.792 32.144C282.192 30.992 280.56 30.416 278.896 30.416C278 30.416 277.008 30.64 275.92 31.088C274.896 31.472 273.904 32.144 272.944 33.104C272.048 34.064 271.28 35.344 270.64 36.944C270 38.48 269.68 40.4 269.68 42.704V74H255.76V18.512H269.68V24.464C271.344 22.096 273.168 20.272 275.152 18.992C277.2 17.712 279.472 17.072 281.968 17.072C284.4 17.072 286.768 17.744 289.072 19.088C291.44 20.368 293.648 22.096 295.696 24.272ZM297.599 74C299.231 62.768 300.191 50.864 302.303 40.208L300.767 34.448L301.919 30.992L308.927 31.664L318.431 30.992C316.799 43.952 313.631 55.376 313.631 69.968C313.631 71.312 313.631 72.656 313.727 74H297.599ZM307.583 18.992L308.255 8.23999L309.791 6.89599H320.735L316.895 19.952L307.583 18.992ZM322.4 6.8H355.04V16.4H344V74H333.44V16.4H322.4V6.8ZM371.389 45.968C371.389 47.504 371.901 48.656 372.925 49.424C374.013 50.128 375.453 50.48 377.245 50.48C379.165 50.48 381.245 50.064 383.485 49.232C385.725 48.336 387.773 47.184 389.629 45.776C386.301 53.52 382.269 60.08 377.533 65.456C372.541 71.152 368.061 74 364.093 74C362.237 74 360.701 73.328 359.485 71.984C358.077 70.448 357.373 68.208 357.373 65.264C357.373 59.504 360.093 52.4 365.533 43.952C371.677 34.416 377.885 29.648 384.157 29.648C386.333 29.648 387.933 30.32 388.957 31.664C389.789 32.752 390.205 34.16 390.205 35.888C390.205 37.808 389.309 39.536 387.517 41.072C384.893 43.376 380.829 44.816 375.325 45.392L371.389 45.968ZM372.061 42.032C376.541 42.032 380.061 41.392 382.621 40.112C385.181 38.768 386.461 37.136 386.461 35.216C386.461 33.68 385.693 32.912 384.157 32.912C382.045 32.912 379.741 33.776 377.245 35.504C374.813 37.168 373.085 39.344 372.061 42.032ZM405.162 36.944C407.466 30.224 412.458 24.848 419.754 24.848C420.33 24.848 420.906 24.848 421.482 24.944V32.912H421.098C416.106 32.912 412.842 34.352 410.538 36.656C405.93 41.264 405.738 47.696 405.738 53.456V74H397.578V26H405.162V36.944Z" fill="black"/>
</svg>
