<svg width="130" height="33" viewBox="0 0 130 33" fill="none" xmlns="http://www.w3.org/2000/svg">
<path d="M0.188316 21.5616C0.922266 21.5616 1.41479 21.4634 1.66587 21.2671C2.05216 20.9627 2.39017 20.457 2.67988 19.7501H2.6654L9.90833 0.633299C10.4491 0.633299 10.9706 0.549841 11.4728 0.382925C11.975 0.216009 12.2888 0.0883673 12.4144 0L19.1068 18.2331C19.6283 19.7746 20.2029 20.8007 20.8307 21.3112C21.0238 21.4683 21.2025 21.5469 21.3666 21.5469C21.8495 21.5469 22.2358 21.4536 22.5255 21.2671L22.2068 23.167H13.5877L13.805 21.5469C15.4371 21.5763 16.3207 21.2622 16.4559 20.6043C16.5042 20.4079 16.5042 20.1919 16.4559 19.9563L14.6017 14.9635H6.8663L5.01211 20.3539C4.82862 20.8056 4.93485 21.164 5.33079 21.4291C5.43702 21.5076 5.635 21.5469 5.92471 21.5469C6.22409 21.5469 6.48001 21.5371 6.69246 21.5174C7.21396 21.488 7.60025 21.4242 7.85133 21.326L7.61956 23.167H0L0.188316 21.5616ZM13.9354 13.152L10.6036 4.15326L7.48919 13.152H13.9354Z" fill="black"/>
<path d="M22.8429 23.167V22.8352H24.1483V7.70857H22.8429V7.37678H25.9283V9.60882C26.0371 9.26698 26.1953 8.92011 26.403 8.56821C26.6106 8.20626 26.8776 7.90463 27.204 7.66333C27.5303 7.41197 27.9209 7.28629 28.3758 7.28629C28.801 7.28629 29.2164 7.39689 29.6218 7.61809C30.0372 7.82922 30.3783 8.25653 30.6453 8.9C30.9222 9.53342 31.0607 10.4936 31.0607 11.7805V22.8352H32.3215V23.167H28.094V22.8352H29.2807V12.1123C29.2807 10.6042 29.1571 9.50828 28.9098 8.82459C28.6626 8.13085 28.2819 7.78398 27.7676 7.78398C27.5303 7.78398 27.2979 7.8996 27.0705 8.13085C26.8529 8.35204 26.6601 8.63356 26.492 8.97541C26.3239 9.3072 26.1854 9.64904 26.0766 10.0009C25.9777 10.3428 25.9283 10.6344 25.9283 10.8757V22.8352H27.1446V23.167H22.8429Z" fill="black"/>
<path d="M35.0796 33C34.5852 33 34.1995 32.8995 33.9226 32.6984C33.6457 32.4973 33.448 32.256 33.3293 31.9745C33.2304 31.693 33.181 31.4315 33.181 31.1902C33.181 30.7076 33.3194 30.3155 33.5963 30.0139C33.893 29.7324 34.2589 29.5916 34.694 29.5916C35.0895 29.5916 35.3961 29.6821 35.6136 29.8631C35.8312 30.0642 36.0092 30.2552 36.1477 30.4362C36.3059 30.6373 36.474 30.7378 36.652 30.7378C36.8102 30.7378 36.9289 30.6674 37.008 30.5267C37.1069 30.3859 37.186 30.225 37.2453 30.0441L44.2764 10.1367H45.3444L38.2243 29.6821C37.7299 31.0294 37.2157 31.9141 36.6817 32.3364C36.1477 32.7788 35.6136 33 35.0796 33ZM39.8857 22.7145L34.0413 9.89537L37.631 9.71439L41.2801 18.3711H41.4581L39.8857 22.7145ZM32.4986 10.3478V9.59374H39.856V10.3478H32.4986ZM41.9921 10.3478V9.59374H47.5695V10.3478H41.9921Z" fill="black"/>
<path d="M57.043 23.6194L49.3889 4.13429C48.5384 1.94247 47.5891 0.846558 46.5409 0.846558H46.4519V0.54493H55.8563V0.846558H55.7376C54.8476 0.846558 54.2543 1.12808 53.9576 1.69111C53.6609 2.23404 53.7005 2.98811 54.0763 3.95332L59.3273 17.5567L62.4424 9.71439L60.4844 4.13429C60.1086 3.04843 59.6537 2.23404 59.1197 1.69111C58.6054 1.12808 57.9528 0.846558 57.1616 0.846558H57.1023V0.54493H66.6254V0.846558H66.5068C65.6563 0.846558 65.1025 1.11802 64.8454 1.66095C64.5883 2.20388 64.618 2.968 64.9344 3.95332L69.4735 17.5567L74.5465 3.98348C74.8828 3.0786 74.8432 2.34464 74.4279 1.7816C74.0323 1.19846 73.3302 0.886775 72.3215 0.846558V0.54493H77.7506V0.846558C77.2166 0.846558 76.7122 1.10797 76.2375 1.63079C75.7827 2.15361 75.4069 2.81719 75.1102 3.62153L67.5451 23.6194H67.3078L62.6204 10.2875L57.31 23.6194H57.043Z" fill="black"/>
<path d="M91.1283 7.54268L88.844 11.2225C88.4286 10.76 87.9638 10.3579 87.4496 10.016C86.9551 9.65407 86.4508 9.47309 85.9366 9.47309C85.6597 9.47309 85.3531 9.54347 85.0169 9.68423C84.7005 9.80488 84.3939 10.016 84.0972 10.3176C83.8203 10.6193 83.583 11.0214 83.3852 11.5242C83.1874 12.0068 83.0885 12.61 83.0885 13.3339V23.167H78.7868V5.73292H83.0885V7.603C83.6028 6.85899 84.1665 6.2859 84.7796 5.88373C85.4125 5.48156 86.1146 5.28047 86.8859 5.28047C87.6375 5.28047 88.3693 5.49161 89.0813 5.91389C89.8131 6.31606 90.4954 6.85899 91.1283 7.54268Z" fill="black"/>
<path d="M91.7163 23.167C92.2207 19.6379 92.5173 15.8977 93.17 12.5497L92.6953 10.7399L93.0513 9.65407L95.217 9.86521L98.1541 9.65407C97.6497 13.726 96.6707 17.3154 96.6707 21.9001C96.6707 22.3224 96.6707 22.7447 96.7004 23.167H91.7163ZM94.8017 5.88373L95.0094 2.50551L95.484 2.08323H98.8661L97.6794 6.18536L94.8017 5.88373Z" fill="black"/>
<path d="M99.3806 2.05307H109.467V5.06934H106.056V23.167H102.792V5.06934H99.3806V2.05307Z" fill="black"/>
<path d="M114.52 14.3594C114.52 14.8421 114.678 15.204 114.995 15.4453C115.331 15.6665 115.776 15.7771 116.33 15.7771C116.923 15.7771 117.566 15.6464 118.258 15.385C118.95 15.1035 119.583 14.7415 120.157 14.2991C119.128 16.7323 117.882 18.7934 116.419 20.4825C114.876 22.2721 113.491 23.167 112.265 23.167C111.692 23.167 111.217 22.9558 110.841 22.5335C110.406 22.0509 110.188 21.3471 110.188 20.4222C110.188 18.6124 111.029 16.3804 112.71 13.726C114.609 10.7299 116.527 9.23179 118.466 9.23179C119.138 9.23179 119.632 9.44293 119.949 9.86521C120.206 10.2071 120.335 10.6494 120.335 11.1924C120.335 11.7956 120.058 12.3385 119.504 12.8212C118.693 13.5451 117.437 13.9975 115.736 14.1785L114.52 14.3594ZM114.728 13.1228C116.112 13.1228 117.2 12.9217 117.991 12.5195C118.782 12.0972 119.178 11.5845 119.178 10.9812C119.178 10.4986 118.94 10.2573 118.466 10.2573C117.813 10.2573 117.101 10.5288 116.33 11.0717C115.578 11.5945 115.044 12.2782 114.728 13.1228Z" fill="black"/>
<path d="M124.957 11.5242C125.669 9.41277 127.211 7.72365 129.466 7.72365C129.644 7.72365 129.822 7.72365 130 7.75382V10.2573H129.881C128.339 10.2573 127.33 10.7098 126.618 11.4337C125.194 12.8815 125.135 14.9024 125.135 16.7121V23.167H122.613V8.08561H124.957V11.5242Z" fill="black"/>
</svg>
